<svg xmlns="http://www.w3.org/2000/svg" width="1280" height="800" viewBox="0 0 1280 800">
  <rect width="1280" height="800" fill="#0f172a"/>
  <rect x="54" y="54" width="908" height="692" rx="18" fill="#111827" stroke="#334155" stroke-width="2"/>
  <rect x="54" y="54" width="908" height="54" rx="18" fill="#1f2937"/>
  <circle cx="86" cy="81" r="7" fill="#ef4444"/>
  <circle cx="112" cy="81" r="7" fill="#f59e0b"/>
  <circle cx="138" cy="81" r="7" fill="#22c55e"/>
  <rect x="180" y="69" width="580" height="24" rx="12" fill="#0f172a"/>
  <text x="204" y="86" fill="#94a3b8" font-family="Arial, Helvetica, sans-serif" font-size="14">techblog.musinsa.com/the-philosophy-ai-native-hiring</text>

  <rect x="108" y="158" width="760" height="70" rx="10" fill="#1e293b"/>
  <text x="136" y="203" fill="#e5e7eb" font-family="Arial, Helvetica, sans-serif" font-size="36" font-weight="700">A light article, converted carefully</text>
  <rect x="108" y="260" width="760" height="18" rx="9" fill="#475569"/>
  <rect x="108" y="298" width="720" height="18" rx="9" fill="#334155"/>
  <rect x="108" y="336" width="744" height="18" rx="9" fill="#334155"/>
  <rect x="108" y="374" width="690" height="18" rx="9" fill="#334155"/>
  <rect x="108" y="442" width="760" height="170" rx="12" fill="#172033" stroke="#334155"/>
  <rect x="136" y="478" width="260" height="22" rx="11" fill="#60a5fa"/>
  <rect x="136" y="526" width="690" height="16" rx="8" fill="#475569"/>
  <rect x="136" y="562" width="620" height="16" rx="8" fill="#334155"/>

  <rect x="914" y="156" width="278" height="336" rx="16" fill="#f7f7f5" stroke="#d4d4d4" stroke-width="2"/>
  <text x="940" y="205" fill="#18181b" font-family="Arial, Helvetica, sans-serif" font-size="26" font-weight="700">Auto Dark</text>
  <text x="940" y="231" fill="#71717a" font-family="Arial, Helvetica, sans-serif" font-size="16">techblog.musinsa.com</text>
  <rect x="1132" y="188" width="42" height="24" rx="12" fill="#2563eb"/>
  <circle cx="1156" cy="200" r="9" fill="#ffffff"/>

  <rect x="940" y="264" width="226" height="86" rx="10" fill="#ffffff" stroke="#deded8"/>
  <text x="962" y="303" fill="#15803d" font-family="Arial, Helvetica, sans-serif" font-size="22" font-weight="700">Auto dark</text>
  <text x="962" y="328" fill="#71717a" font-family="Arial, Helvetica, sans-serif" font-size="15">Native first. Chrome fallback.</text>

  <rect x="940" y="378" width="226" height="42" rx="8" fill="#ffffff" stroke="#deded8"/>
  <rect x="946" y="384" width="54" height="30" rx="6" fill="#2563eb"/>
  <text x="959" y="405" fill="#ffffff" font-family="Arial, Helvetica, sans-serif" font-size="13" font-weight="700">Auto</text>
  <text x="1015" y="405" fill="#71717a" font-family="Arial, Helvetica, sans-serif" font-size="13">Native</text>
  <text x="1070" y="405" fill="#71717a" font-family="Arial, Helvetica, sans-serif" font-size="13">Force</text>
  <text x="1124" y="405" fill="#71717a" font-family="Arial, Helvetica, sans-serif" font-size="13">Off</text>
  <text x="940" y="458" fill="#71717a" font-family="Arial, Helvetica, sans-serif" font-size="14">Local only. No browsing data is sent.</text>

  <text x="74" y="736" fill="#cbd5e1" font-family="Arial, Helvetica, sans-serif" font-size="28" font-weight="700">Prefers native dark mode. Falls back to Chrome Auto Dark Mode.</text>
</svg>